<svg id="Слой_1" data-name="Слой 1" xmlns="http://www.w3.org/2000/svg" viewBox="0 0 288.86 150"><defs><style>.cls-1{fill:#525ed1;}</style></defs><path class="cls-1" d="M60.32,39.7l-.08,11.62a16.25,16.25,0,0,0-7.37.88,163.43,163.43,0,0,0-15,6.76c-6.63,3.29-8.91,3.88-15.28,3.95a19.76,19.76,0,0,1-7.2-1.38V89.36H1l0-1.58c.23-.82.44-1.79.65-2.91a43.61,43.61,0,0,0,.53-4.4c.17-2,.28-4.07.34-6.29.08-2.43.13-5.32.13-8.59V27.77c0-3.27-.05-6.16-.13-8.59-.06-2.22-.17-4.35-.34-6.34a43.48,43.48,0,0,0-.53-4.41C1.47,7.31,1.26,6.34,1,5.54L1,5V4H15.37V42.74c0,1.19.08,2.26.17,3.13.84,8.11,3.31,9.73,7.6,9.88,5.19.15,7.54-.78,15.81-6.27l4.37-2.89C45.73,45,47.19,44,48.24,43.36c-2.62-.7-4.85-1.23-6.84-1.63-.8-.17-1.58-.34-2.3-.51-3.06-.67-5.49-1.2-8-.8a3.25,3.25,0,0,0-2.68,2.75,2.88,2.88,0,0,0,.44,1.64,6.57,6.57,0,0,0,.82,1.06l1.53,1.69L29.6,48a8,8,0,0,1-7-1.77,8.59,8.59,0,0,1-2.41-6.51,7.51,7.51,0,0,1,1.37-3.88,8.62,8.62,0,0,1,3.82-3.11,14.77,14.77,0,0,1,8.15-1,74.11,74.11,0,0,1,13.67,3.32c7.74,2.41,10.79,3.65,12.07,4.18Z"/><path class="cls-1" d="M80.41,87.76l0,.53v1H66.1V3.93H80.46l0,1.59a27.85,27.85,0,0,0-.61,2.91c-.25,1.27-.42,2.87-.57,4.41s-.23,3.66-.34,6.34c-.08,2.43-.12,5.3-.12,8.57V65.57c0,3.27,0,6.16.12,8.59.11,2.66.21,4.67.34,6.31.13,1.44.32,3.09.55,4.38S80.22,87.06,80.41,87.76Z"/><path class="cls-1" d="M219.39,87.21v2.13h-16l-6.12-7.28c-.09-.13-.19-.25-.3-.38l-4.43-5.26-16.79-20V52.54l16.41-14.7,3-2.68a13.83,13.83,0,0,0,1-.95l.27-.25,7.1-6.36h11.91v2.07l-.74.23A14.83,14.83,0,0,0,212.07,31a22.76,22.76,0,0,0-2.64,1.65c-.91.63-1.84,1.37-2.79,2.18l-.23.19c-.91.8-1.92,1.64-3,2.61L187.09,52.52,209.87,79.4c.7.84,1.44,1.71,2.24,2.55s1.58,1.63,2.38,2.35a22.06,22.06,0,0,0,2.29,1.83,5.09,5.09,0,0,0,1.79.89Z"/><path class="cls-1" d="M171,.18h-14V1.23l0,.53a26.57,26.57,0,0,1,.65,2.93,41.8,41.8,0,0,1,.53,4.37c.13,1.78.26,3.89.34,6.34s.15,5.13.15,8.59V65.53c0,3.48-.06,6.29-.15,8.59-.08,2.47-.21,4.58-.34,6.33s-.34,3.3-.53,4.4a29,29,0,0,1-.65,2.91l0,1.58h14V.18Z"/><path class="cls-1" d="M288.59,87.21v2.13h-16l-6.12-7.28a3.32,3.32,0,0,0-.3-.38l-4.43-5.26L245,56.47V52.54l16.41-14.7,3-2.68a11.94,11.94,0,0,0,1-.95l.28-.25,7.09-6.36h11.91v2.07l-.74.23A14.83,14.83,0,0,0,281.26,31a22.76,22.76,0,0,0-2.64,1.65c-.91.63-1.84,1.37-2.79,2.18l-.23.19c-.91.8-1.92,1.64-3,2.61L256.28,52.52,279.06,79.4c.7.84,1.44,1.71,2.24,2.55s1.59,1.63,2.39,2.35A22.1,22.1,0,0,0,286,86.13a5.26,5.26,0,0,0,1.79.89Z"/><path class="cls-1" d="M240.21.18h-14V1.23l0,.53a24.34,24.34,0,0,1,.66,2.93c.21,1.12.38,2.56.53,4.37s.25,3.89.33,6.34.15,5.13.15,8.59V65.53c0,3.48-.06,6.29-.15,8.59-.08,2.47-.21,4.58-.33,6.33s-.34,3.3-.53,4.4a26.35,26.35,0,0,1-.66,2.91l0,1.58h14V.18Z"/><path class="cls-1" d="M143.42,88.29v1H129.08V84.21c0-.08,0-.17,0-.25l0,0c-.88.74-1.88,1.48-3,2.24a26.88,26.88,0,0,1-14.74,4.16c-7,0-12.46-1.67-16.3-5s-5.92-8.12-5.92-14.25a17.06,17.06,0,0,1,2-8.46,19.52,19.52,0,0,1,5.3-6.09,29.87,29.87,0,0,1,7.41-4,55.79,55.79,0,0,1,8.49-2.36A72,72,0,0,1,121,49l2-.15V55.5l-1,.08c-1.12.08-2.26.19-3.36.32a27.78,27.78,0,0,0-8.32,2.19,14,14,0,0,0-5.55,4.63,13.79,13.79,0,0,0-2,8c0,4.28,1.06,7.56,3.15,9.71s5,3.29,8.7,3.29a22.44,22.44,0,0,0,7.3-1.52,22.58,22.58,0,0,0,7.56-6.3s0-2.37,0-4.17V46.75a19.47,19.47,0,0,0-.9-6.27A11.92,11.92,0,0,0,126,36.24a10.09,10.09,0,0,0-3.93-2.47,18.46,18.46,0,0,0-9.16-.51,21.64,21.64,0,0,0-4,1.12,26.72,26.72,0,0,0-4.41,2.11A46.19,46.19,0,0,0,99.42,40l-.55.42-1.71.48V31.66l.55-.3a50.37,50.37,0,0,1,7.89-3.19,29.35,29.35,0,0,1,3.93-.93,39.17,39.17,0,0,1,4-.52c1.4-.09,2.81-.15,4.31-.15a34.31,34.31,0,0,1,10.77,1.54,20.54,20.54,0,0,1,7.45,4.31,16.79,16.79,0,0,1,4.33,6.42,22.53,22.53,0,0,1,1.33,7.79V65.57c0,2.89,0,5.72.15,8.59.1,2.43.21,4.54.36,6.31a41.72,41.72,0,0,0,.48,4.38,26.35,26.35,0,0,0,.66,2.91Z"/><path class="cls-1" d="M28.24,149.38H22.45L20,142.67H9.54L7.1,149.38H1.3l11.43-29.53h4.2Zm-9.79-11.63-3.64-10.11-3.68,10.11Z"/><path class="cls-1" d="M58.38,149.82a15,15,0,0,1-10.84-4.19,14.57,14.57,0,0,1-4.35-10.91,14.73,14.73,0,0,1,4.43-11,15,15,0,0,1,10.84-4.36A16.39,16.39,0,0,1,65.79,121a13.76,13.76,0,0,1,5.38,4.51l-3.72,3.56a10.88,10.88,0,0,0-8.75-4.47,9.56,9.56,0,0,0-7,2.87,10,10,0,0,0-2.84,7.24,9.57,9.57,0,0,0,9.84,9.87,10.79,10.79,0,0,0,8.91-4.48l3.8,3.44a15.54,15.54,0,0,1-5.56,4.56A16.45,16.45,0,0,1,58.38,149.82Z"/><path class="cls-1" d="M112.81,149.38H107l-2.44-6.71H94.11l-2.44,6.71h-5.8L97.3,119.85h4.2ZM103,137.75l-3.64-10.11-3.67,10.11Z"/><path class="cls-1" d="M141.71,149.38H130.56V119.85H142q6.56,0,10.31,4T156,134.68q0,6.8-3.84,10.75T141.71,149.38ZM136,125.09v19.06h5.92a7.58,7.58,0,0,0,6.19-2.72,10.45,10.45,0,0,0,2.24-6.87,10.29,10.29,0,0,0-2.2-6.76,7.57,7.57,0,0,0-6.19-2.71Z"/><path class="cls-1" d="M194.82,149.38H175.2V119.85h19.62V125H180.68v7h13.07V137H180.68v7.27h14.14Z"/><path class="cls-1" d="M219.76,149.38h-5.39V119.85h3.44l11.83,17.23,11.79-17.23h3.47v29.53h-5.43v-17.5l-8.95,13h-1.8l-9-13Z"/><path class="cls-1" d="M282.31,119.85h6.28L278.4,139v10.35h-5.48V139l-10.11-19.18h6.31l6.52,13.43Z"/></svg>